PathFileType  4	(X/Y/Z) C:\Users\antoi\Documents\MyRepositories\mobilecap\ResultsAnalysis
DataRate	CameraRate	NumFrames	NumMarkers	Units	OrigDataRate	OrigDataStartFrame	OrigNumFrames
100.0	100.0	7	51	mm	100.0	101	268
Frame#	Time	r_knee			r_shank_antsup			r_ankle			r_calc			r_5meta			r_toe			L_knee			L_shank_antsup			L_ankle			L_calc			L_5meta			L_toe			r_sh2			r_sh3			r_sh4			L_sh2			L_sh3			r_thigh1			r_thigh2			r_thigh3			r_thigh4			r_thigh5			L_thigh1			L_thigh2			L_thigh3			L_thigh4			r.ASIS			r.PSIS			L.ASIS			L.PSIS			C7			R_Shoulder			L_Shoulder			R_Sternum			L_Sternum			R_humerus			R_elbow_med			R_elbow_lat			R_forearm			R_wrist_radius			R_wrist_ulna			L_humerus			L_elbow_med			L_elbow_lat			L_forearm			L_wrist_radius			L_wrist_ulna			R_HJC			L_HJC			R_HJC_reg			L_HJC_reg			
		X1	Y1	Z1	X2	Y2	Z2	X3	Y3	Z3	X4	Y4	Z4	X5	Y5	Z5	X6	Y6	Z6	X7	Y7	Z7	X8	Y8	Z8	X9	Y9	Z9	X10	Y10	Z10	X11	Y11	Z11	X12	Y12	Z12	X13	Y13	Z13	X14	Y14	Z14	X15	Y15	Z15	X16	Y16	Z16	X17	Y17	Z17	X18	Y18	Z18	X19	Y19	Z19	X20	Y20	Z20	X21	Y21	Z21	X22	Y22	Z22	X23	Y23	Z23	X24	Y24	Z24	X25	Y25	Z25	X26	Y26	Z26	X27	Y27	Z27	X28	Y28	Z28	X29	Y29	Z29	X30	Y30	Z30	X31	Y31	Z31	X32	Y32	Z32	X33	Y33	Z33	X34	Y34	Z34	X35	Y35	Z35	X36	Y36	Z36	X37	Y37	Z37	X38	Y38	Z38	X39	Y39	Z39	X40	Y40	Z40	X41	Y41	Z41	X42	Y42	Z42	X43	Y43	Z43	X44	Y44	Z44	X45	Y45	Z45	X46	Y46	Z46	X47	Y47	Z47	X48	Y48	Z48	X49	Y49	Z49	X50	Y50	Z50	X51	Y51	Z51	

101	1.00000000	-797.39681	883.48631	-443.57533	-812.89673	800.82206	-432.25911	-1062.18486	537.90514	-458.01594	-1135.85943	543.83931	-513.74853	-1015.76663	387.97032	-422.88468	-965.57200	382.65367	-474.20492	-679.06688	928.64719	-755.83416	-683.57325	811.33877	-771.43136	-845.20725	523.02630	-735.51081	-919.97437	513.71171	-683.78746	-751.58312	382.76429	-773.13691	-706.59341	403.04242	-717.36988	-879.56130	709.56889	-425.64241	-871.33910	845.38798	-412.92106	-946.60767	757.17279	-414.24465	-763.84535	852.41309	-774.33017	-805.52873	739.17444	-767.99772	-741.96037	1196.63808	-397.37510	-724.05198	1088.19267	-413.55440	-775.91546	1051.38475	-391.28673	-854.02541	1174.69570	-398.88694	-829.01709	1060.47241	-404.40907	-723.37376	1251.80082	-766.23391	-660.35788	1127.84600	-770.49543	-829.05360	1198.70643	-758.70733	-761.01252	1077.78515	-772.85491	-724.72654	1393.86837	-440.64561	-912.33725	1462.81393	-508.02251	-743.28682	1413.87506	-700.27428	-922.90234	1468.93342	-615.16454	-862.98596	1969.83488	-528.12326	-833.61027	1945.35684	-375.21052	-798.70225	1953.06526	-665.29909	-723.18324	1877.48974	-491.74432	-720.36621	1877.81520	-551.40227	-727.52702	1782.91830	-202.88145	-671.38180	1660.65974	-233.81253	-669.92920	1719.66700	-161.42108	-565.94056	1814.65118	-237.70834	-497.95874	1871.05765	-309.73985	-477.09291	1858.62099	-269.59523	-757.55940	1811.69888	-878.49675	-747.87944	1677.07231	-900.74573	-738.39846	1746.25290	-943.55194	-572.99880	1786.06161	-912.30853	-491.10956	1811.69659	-862.06013	-477.84997	1792.96613	-894.34026	-819.74864	1327.61807	-450.47866	-829.49733	1343.02755	-680.12391	-807.88508	1333.50781	-473.13689	-824.76596	1343.28535	-644.33039	
102	1.01000000	-782.33771	887.75611	-442.19276	-797.25618	805.11424	-430.49325	-1041.56551	537.87575	-461.33171	-1114.25736	538.87705	-518.76304	-988.62111	391.16869	-421.67289	-936.44048	388.01634	-471.82144	-669.24172	930.74007	-756.63053	-671.14658	812.94906	-772.28744	-823.30081	519.40013	-735.97687	-897.31785	508.53984	-684.41293	-726.79121	380.53217	-773.71604	-682.20869	402.19698	-718.51283	-862.84032	712.82260	-425.13016	-856.69102	849.00176	-412.57422	-930.53231	759.12602	-415.20244	-752.49252	851.80202	-774.49496	-790.58954	737.09254	-768.52171	-729.91699	1201.44926	-395.65077	-711.22601	1093.23305	-411.06153	-763.18677	1056.24661	-389.57735	-841.87764	1179.01477	-399.08411	-816.05211	1065.28329	-404.25100	-713.05361	1254.38279	-766.94705	-650.58455	1130.26382	-771.72590	-818.91071	1201.78217	-758.02651	-751.60212	1080.53965	-772.88200	-712.79401	1398.49039	-440.45320	-900.84001	1465.66953	-508.08311	-731.65692	1417.92816	-700.44747	-911.34391	1471.68865	-614.92922	-854.17940	1973.95239	-529.13761	-824.78636	1949.58208	-376.22881	-789.48421	1957.07498	-666.50611	-714.29413	1881.81017	-492.15731	-711.73507	1882.08831	-553.10878	-722.77606	1786.23229	-201.84538	-666.71973	1663.05699	-232.99976	-665.54237	1722.27355	-160.18654	-561.91732	1816.89751	-237.45514	-494.58076	1873.10257	-310.38906	-473.45241	1860.74873	-270.35888	-751.82018	1818.10053	-881.32681	-743.88729	1683.95746	-905.53962	-734.35550	1753.53730	-947.48413	-568.50021	1791.36818	-917.87936	-485.79403	1815.90079	-867.88121	-472.91911	1797.50530	-900.67993	-807.17120	1331.39689	-450.29017	-817.18016	1346.41905	-679.94981	-795.49944	1337.03237	-473.09502	-812.35422	1346.68835	-644.52518	
103	1.02000000	-768.09122	891.39649	-441.64832	-782.41817	808.99196	-428.96403	-1018.34260	535.00000	-464.44248	-1090.07061	531.04375	-523.52192	-958.86357	392.06746	-420.31933	-905.30952	390.65191	-469.61651	-660.00307	931.55193	-757.05155	-658.99624	813.71426	-773.99646	-800.97873	514.70365	-737.21085	-874.21921	502.17989	-685.31536	-701.41562	377.95506	-774.73510	-657.53330	400.64445	-720.02350	-845.91852	715.17453	-424.62984	-843.79942	851.32968	-413.45032	-915.01354	759.52034	-417.35300	-741.63248	849.91130	-774.48576	-775.82467	733.98169	-768.99287	-717.88453	1205.95210	-394.05049	-698.41002	1097.78797	-408.91850	-750.39745	1060.37269	-388.24827	-829.50080	1182.93859	-399.00694	-803.01200	1069.47992	-403.62729	-702.39955	1255.91194	-767.11520	-640.73644	1131.40042	-772.76211	-808.49274	1204.07485	-757.61947	-742.15447	1082.33144	-773.07279	-701.09642	1402.18605	-440.35221	-889.48691	1467.83986	-507.40423	-720.12552	1420.94906	-700.53631	-899.51365	1473.24952	-614.18596	-845.32576	1977.14049	-530.24597	-815.50364	1952.82205	-377.26889	-780.23376	1960.09009	-667.70531	-705.03819	1885.50414	-492.06027	-703.02295	1885.29402	-554.55468	-717.66340	1788.43147	-201.00789	-662.38754	1664.19447	-231.54410	-661.27732	1723.85947	-158.84968	-557.69457	1817.60057	-237.22649	-490.66119	1873.06393	-310.80057	-469.36480	1860.92458	-270.91358	-745.69253	1823.42890	-884.02066	-739.58842	1689.83527	-910.02451	-730.00337	1759.83052	-951.24187	-563.56197	1795.64120	-923.13309	-480.10347	1818.79539	-873.68809	-467.66074	1800.87024	-906.91690	-794.57324	1334.26255	-449.76138	-805.10174	1348.81467	-679.42799	-783.79424	1340.32031	-473.04072	-799.91154	1349.01760	-644.68600	
104	1.03000000	-755.36218	894.73804	-440.72028	-768.01481	812.08205	-427.89198	-992.78656	529.40238	-466.96609	-1062.91635	521.18412	-528.03804	-928.02029	390.07666	-418.93335	-873.37628	390.11208	-467.20282	-651.33814	931.26429	-757.36040	-647.16235	813.76446	-776.23301	-778.36178	509.06637	-738.84273	-850.70951	494.80242	-686.30947	-675.68211	374.42622	-775.51308	-632.02800	398.56029	-721.70894	-828.20204	716.18602	-424.25588	-832.10593	852.02957	-415.66993	-899.11869	757.94372	-420.24173	-731.31161	846.75697	-774.28788	-761.37389	729.71094	-769.17551	-705.60494	1209.83411	-392.67460	-685.49955	1101.63495	-407.39638	-737.40475	1063.65188	-387.17271	-816.90586	1186.10036	-398.49323	-789.87466	1072.63144	-402.72063	-691.36592	1256.32209	-766.72216	-630.84030	1131.30349	-773.58160	-797.90355	1205.50426	-757.44803	-732.69311	1083.12018	-773.27346	-689.64971	1405.09092	-440.28671	-878.35037	1469.30918	-506.30363	-708.63183	1423.02808	-700.46297	-887.40687	1473.76494	-612.90100	-836.31634	1979.39820	-531.50512	-805.93599	1955.18421	-378.34654	-770.99106	1962.15552	-668.85348	-695.65524	1887.99832	-492.42914	-694.02392	1887.50847	-555.67076	-712.07165	1789.55156	-200.46684	-659.23592	1663.82176	-228.06148	-657.13314	1724.53599	-157.47047	-553.19619	1816.83130	-236.96680	-486.05460	1871.01543	-311.08727	-464.74550	1859.29466	-271.22354	-739.28146	1827.67461	-886.54966	-735.04336	1694.55415	-914.33596	-725.37979	1765.11618	-954.88232	-558.23170	1798.83582	-928.12790	-473.93846	1820.35651	-879.48223	-462.06500	1802.96688	-912.97533	-782.00672	1336.30899	-448.92509	-793.15448	1350.30082	-678.59760	-772.69871	1343.20569	-473.07962	-787.29387	1350.38687	-644.88523	
105	1.04000000	-743.57331	897.17137	-439.51187	-753.62378	813.89819	-427.24794	-965.63348	521.77249	-469.01441	-1033.57633	509.84764	-532.20937	-896.34712	385.69362	-417.78074	-840.54322	387.62493	-464.75744	-643.11704	930.04157	-757.68199	-635.86067	812.88508	-777.74399	-755.54944	502.68469	-740.51120	-826.90830	486.55650	-687.23979	-649.60480	369.93213	-776.21428	-605.69125	396.09101	-723.55050	-809.72425	715.54859	-424.15845	-819.74381	851.18401	-417.73998	-882.50349	754.41536	-423.11271	-721.32684	842.43767	-773.88754	-747.03408	724.29002	-769.31913	-693.10451	1212.52563	-391.66068	-672.57538	1104.40165	-406.61504	-724.20096	1066.41203	-386.36739	-804.35186	1188.20522	-397.50308	-776.81659	1074.68314	-401.90115	-680.02027	1255.74143	-766.15168	-620.91129	1130.20098	-774.00281	-787.24246	1206.05500	-757.47405	-723.28452	1082.98433	-773.32625	-678.44254	1407.28206	-440.11530	-867.36951	1469.98540	-505.44237	-697.08913	1424.11194	-700.41465	-875.87325	1473.43681	-611.75862	-826.97563	1980.73020	-532.97549	-796.05770	1956.78778	-379.50316	-761.62618	1963.44258	-670.23303	-686.22868	1889.15900	-493.36091	-684.63460	1888.73008	-556.78460	-705.96111	1789.73700	-200.03680	-657.07033	1662.14269	-223.48068	-653.16792	1724.49655	-155.93672	-548.39111	1814.70233	-236.65105	-480.73454	1867.21416	-311.28136	-459.53781	1855.87410	-271.49209	-732.57487	1830.99720	-889.01773	-730.32021	1698.29001	-918.56286	-720.50196	1769.43389	-958.42712	-552.63838	1800.88913	-933.08720	-467.40923	1820.82912	-885.34802	-456.16882	1803.76004	-919.05849	-769.71590	1337.65847	-448.04334	-781.32121	1350.82913	-677.74176	-761.39253	1345.29943	-472.71179	-775.14932	1350.87873	-644.67161	
106	1.05000000	-730.44415	897.69603	-438.92528	-738.83865	814.25724	-426.77712	-937.20126	512.82227	-470.73788	-1002.91918	497.64436	-535.60785	-863.47658	379.74372	-417.01520	-806.63029	384.30973	-462.61169	-635.24896	927.91691	-757.81973	-624.91934	810.87253	-778.08377	-732.41984	495.77929	-742.22290	-802.79417	477.70755	-688.25716	-622.96634	365.42280	-778.14808	-579.13887	393.23253	-725.76753	-790.55966	713.50470	-423.99602	-806.01862	848.84149	-418.90327	-865.08829	749.20757	-425.54925	-711.35499	837.05472	-773.28630	-732.45526	718.04338	-769.63740	-680.72376	1213.90196	-391.02659	-659.76876	1105.87310	-406.32004	-711.01740	1068.44593	-385.88969	-791.95164	1189.10547	-396.25619	-763.85611	1075.64942	-401.06939	-668.63457	1254.38872	-765.66370	-610.93467	1128.29645	-773.95804	-776.51604	1205.85935	-757.66247	-713.92532	1082.10535	-773.20070	-667.48461	1408.72125	-439.80983	-856.50046	1469.83246	-505.12043	-685.47233	1424.13000	-700.40727	-865.35971	1472.33487	-611.44659	-817.29901	1981.09862	-534.59480	-785.83235	1957.63135	-380.84488	-751.90491	1964.04535	-671.89365	-676.68680	1889.30719	-494.12294	-674.81418	1888.97856	-558.45002	-699.46477	1789.07301	-199.77577	-654.62010	1660.02367	-220.42452	-649.42723	1723.86117	-154.25988	-543.28003	1811.29614	-236.18336	-474.83129	1861.95860	-311.29465	-453.76356	1850.50511	-271.75397	-725.54719	1833.53702	-891.55397	-725.36282	1701.32682	-922.76153	-715.37759	1772.75422	-961.71452	-546.77616	1801.76939	-938.19182	-460.72686	1820.37424	-891.41123	-450.05781	1803.27147	-925.34545	-757.91149	1338.34784	-447.30075	-769.58518	1350.33058	-677.05998	-749.51254	1346.48199	-471.67037	-763.84736	1350.53170	-643.72819	
107	1.06000000	-715.44812	896.40639	-438.81027	-723.33828	813.34695	-426.22958	-907.49646	503.12136	-472.13751	-971.30962	485.17707	-537.96567	-829.29126	373.03571	-416.50034	-771.83732	380.35522	-461.08468	-627.57256	924.94766	-757.65388	-613.85093	807.88571	-778.04030	-708.87105	488.52383	-744.13285	-778.23794	468.59354	-689.64025	-595.85261	361.16320	-781.14463	-552.63033	390.03911	-728.48062	-770.55300	710.55969	-423.45276	-791.65305	844.85721	-419.82388	-846.62107	742.66629	-427.36152	-701.15453	830.84738	-772.67482	-717.54664	711.16921	-770.17483	-668.62980	1214.11798	-390.68963	-647.09925	1106.14243	-406.16760	-698.10138	1069.04177	-385.36365	-779.66190	1188.70604	-395.22076	-750.89590	1075.42456	-400.02470	-657.51157	1252.35462	-765.03093	-600.96125	1125.66586	-773.55315	-765.84112	1204.97222	-757.81114	-704.61763	1080.50489	-772.86189	-656.78107	1409.24712	-439.52933	-845.79853	1468.84680	-505.19212	-673.86288	1423.13715	-700.21777	-855.24586	1470.45748	-611.93871	-807.36871	1980.40196	-536.25716	-775.31473	1957.57216	-382.52271	-741.72097	1963.78221	-673.54221	-667.00040	1888.48269	-494.61449	-664.59833	1888.32888	-560.74606	-692.75442	1787.58915	-200.06247	-651.72905	1657.73488	-218.95168	-645.88730	1722.57412	-152.70879	-537.90465	1806.63153	-235.48373	-468.48678	1855.19413	-311.13723	-447.56347	1843.29179	-271.80386	-718.29642	1835.08312	-893.98519	-720.17781	1703.44921	-926.88979	-710.03108	1775.04688	-964.82235	-540.69697	1801.54544	-943.39671	-453.97911	1818.86886	-897.57192	-443.85271	1801.64496	-931.73149	-746.59178	1338.24378	-446.72165	-757.88624	1348.87295	-676.56677	-737.64045	1346.78385	-470.51565	-752.85702	1349.38254	-642.48532	
